# Alias OBJ Model File
# Exported from SketchUp, (c) 2000-2012 Trimble Navigation Limited
# File units = meters

mtllib receptacle1.mtl

g Mesh1 Model

usemtl FrontColor
v 0.086 0 -0
vt 3.38583 0
vn 0 0 1
v 0.077 0.013 -0
vt 3.0315 0.511811
v 0 0 -0
vt 0 0
f 1/1/1 2/2/1 3/3/1

v 0.086 0.086 -0
vt 3.38583 3.38583
f 2/2/1 1/1/1 4/4/1

v 0.086 0.086 0.005
vt -0.19685 3.38583
vn 1 0 -0
vt 0 3.38583
f 5/5/2 1/3/2 4/6/2

v 0.086 0 0.005
vt -0.19685 0
f 1/3/2 5/5/2 6/7/2

usemtl Color_M02
v 0.077 0.013 0.005
f 7/2/1 6/1/1 5/4/1

v 0 0 0.005
f 6/1/1 7/2/1 8/3/1

v 0.009 0.013 0.005
vt 0.354331 0.511811
f 9/8/1 8/3/1 7/2/1

v 0 0.086 0.005
f 8/3/1 9/8/1 10/6/1

v 0.009 0.073 0.005
vt 0.354331 2.87402
f 10/6/1 9/8/1 11/9/1

usemtl FrontColor
v 0.009 0.073 -0
vt 0 2.87402
vn -1 0 -0
vt 0.19685 0.511811
vt 0.19685 2.87402
f 12/10/3 9/11/3 11/12/3

v 0.009 0.013 -0
vt 0 0.511811
f 9/11/3 12/10/3 13/13/3

v 0 0.086 -0
f 14/6/1 13/8/1 12/9/1

f 3/3/1 13/8/1 14/6/1

f 13/8/1 3/3/1 2/2/1

v 0.077 0.073 -0
vt 3.0315 2.87402
f 15/14/1 13/8/1 2/2/1

f 13/8/1 15/14/1 12/9/1

f 15/14/1 4/4/1 12/9/1

f 2/2/1 4/4/1 15/14/1

v 0.077 0.073 0.005
vt -0.19685 2.87402
f 16/15/2 2/13/2 15/10/2

vt -0.19685 0.511811
f 2/13/2 16/15/2 7/16/2

usemtl Color_M02
f 7/2/1 5/4/1 16/14/1

f 16/14/1 5/4/1 11/9/1

f 10/6/1 11/9/1 5/4/1

usemtl FrontColor
vt 3.38583 -0.19685
vn 0 1 -0
vt 0 -0.19685
f 5/17/4 14/3/4 10/18/4

f 14/3/4 5/17/4 4/1/4

f 14/6/1 12/9/1 4/4/1

vt 0.19685 0
vt 0.19685 3.38583
f 14/6/3 8/19/3 10/20/3

f 8/19/3 14/6/3 3/3/3

vt -3.38583 0
vn 0 -1 -0
f 1/21/5 8/18/5 3/3/5

vt -3.38583 -0.19685
f 8/18/5 1/21/5 6/22/5

vt 3.0315 -0.19685
vt 0.354331 0
vt 0.354331 -0.19685
f 16/23/4 12/24/4 11/25/4

vt 3.0315 0
f 12/24/4 16/23/4 15/26/4

v 0.077 0.073 0.0052
vt 3.0315 -0.204724
f 11/25/4 17/27/4 16/23/4

v 0.009 0.073 0.0052
vt 0.354331 -0.204724
f 17/27/4 11/25/4 18/28/4

v 0.009 0.013 0.0052
vt 0.204724 0.511811
vt 0.204724 2.87402
f 11/12/3 19/29/3 18/30/3

f 19/29/3 11/12/3 9/11/3

vt -3.0315 -0.19685
vt -0.354331 -0.204724
vt -0.354331 -0.19685
f 7/31/5 19/32/5 9/33/5

v 0.077 0.013 0.0052
vt -3.0315 -0.204724
f 19/32/5 7/31/5 20/34/5

vt -0.204724 2.87402
vt -0.204724 0.511811
f 7/16/2 17/35/2 20/36/2

f 17/35/2 7/16/2 16/15/2

usemtl Color_M02
v 0.053018 0.0266767 0.0052
vt 2.08732 1.05026
f 21/37/1 20/2/1 17/14/1

v 0.049018 0.0197485 0.0052
vt 1.92984 0.7775
f 22/38/1 20/2/1 21/37/1

f 20/2/1 22/38/1 19/8/1

v 0.036755 0.0199414 0.0052
vt 1.44705 0.785096
f 23/39/1 19/8/1 22/38/1

v 0.032755 0.0268697 0.0052
vt 1.28957 1.05786
f 24/40/1 19/8/1 23/39/1

f 19/8/1 24/40/1 18/9/1

v 0.03492 0.0281197 0.0052
vt 1.3748 1.10707
f 18/9/1 24/40/1 25/41/1

usemtl FrontColor
vt -0.204724 1.64573
vn 0.5 -0.866025 -0
v 0.03492 0.0281197 0.0007
vt -0.0275591 1.74415
vt -0.204724 1.74415
f 24/42/6 26/43/6 25/44/6

v 0.032755 0.0268697 0.0007
vt -0.0275591 1.64573
f 26/43/6 24/42/6 27/45/6

vt -0.204724 0.271351
vn 0.866025 0.5 -0
v 0.036755 0.0199414 0.0007
vt -0.0275591 -0.0436094
vt -0.0275591 0.271351
f 24/46/7 28/47/7 27/48/7

vt -0.204724 -0.0436094
f 28/47/7 24/46/7 23/49/7

v 0.03892 0.0211914 0.0052
vt 0.204724 1.74415
vn -0.5 0.866025 -0
vt 0.0275591 1.64573
vt 0.204724 1.64573
f 29/50/8 28/51/8 23/52/8

v 0.03892 0.0211914 0.0007
vt 0.0275591 1.74415
f 28/51/8 29/50/8 30/53/8

vt 0.204724 -0.0436094
vn -0.866025 -0.5 -0
vt 0.0275591 0.271351
vt 0.0275591 -0.0436094
f 29/54/9 26/55/9 30/56/9

vt 0.204724 0.271351
f 26/55/9 29/54/9 25/57/9

usemtl Color_M02
vt 1.53228 0.834309
v 0.050853 0.0279267 0.0052
vt 2.00209 1.09948
f 29/58/1 31/59/1 25/41/1

v 0.046853 0.0209985 0.0052
vt 1.84461 0.826713
f 29/58/1 32/60/1 31/59/1

f 23/39/1 32/60/1 29/58/1

f 32/60/1 23/39/1 22/38/1

usemtl FrontColor
vt -0.204724 -1.28254
vn 0.5 0.866025 -0
v 0.046853 0.0209985 0.0007
vt -0.0275591 -1.18412
vt -0.204724 -1.18412
f 22/61/10 33/62/10 32/63/10

v 0.049018 0.0197485 0.0007
vt -0.0275591 -1.28254
f 33/62/10 22/61/10 34/64/10

vt 0.204724 1.63826
vn -0.866025 0.5 -0
v 0.053018 0.0266767 0.0007
vt 0.0275591 1.95322
vt 0.0275591 1.63826
f 22/65/11 35/66/11 34/67/11

vt 0.204724 1.95322
f 35/66/11 22/65/11 21/68/11

vt 0.204724 -1.18412
vn -0.5 -0.866025 -0
vt 0.0275591 -1.28254
vt 0.204724 -1.28254
f 31/69/12 35/70/12 21/71/12

v 0.050853 0.0279267 0.0007
vt 0.0275591 -1.18412
f 35/70/12 31/69/12 36/72/12

vt -0.204724 1.95322
vn 0.866025 -0.5 -0
vt -0.0275591 1.63826
vt -0.0275591 1.95322
f 31/73/13 33/74/13 36/75/13

vt -0.204724 1.63826
f 33/74/13 31/73/13 32/76/13

f 33/60/1 35/37/1 36/59/1

f 35/37/1 33/60/1 34/38/1

usemtl Color_M02
f 21/37/1 17/14/1 31/59/1

v 0.044 0.034 0.0052
vt 1.73228 1.33858
f 31/59/1 17/14/1 37/77/1

v 0.044 0.042 0.0052
vt 1.73228 1.65354
f 37/77/1 17/14/1 38/78/1

v 0.042 0.042 0.0052
vt 1.65354 1.65354
f 38/78/1 17/14/1 39/79/1

v 0.0545 0.0594019 0.0052
vt 2.14567 2.33866
f 39/79/1 17/14/1 40/80/1

v 0.0551213 0.0598787 0.0052
vt 2.17013 2.35743
f 40/80/1 17/14/1 41/81/1

v 0.0555981 0.0605 0.0052
vt 2.1889 2.38189
f 41/81/1 17/14/1 42/82/1

v 0.0558978 0.0612235 0.0052
vt 2.2007 2.41038
f 42/82/1 17/14/1 43/83/1

v 0.056 0.062 0.0052
vt 2.20472 2.44094
f 43/83/1 17/14/1 44/84/1

v 0.0558978 0.0627765 0.0052
vt 2.2007 2.47151
f 44/84/1 17/14/1 45/85/1

v 0.0555981 0.0635 0.0052
vt 2.1889 2.5
f 45/85/1 17/14/1 46/86/1

v 0.0551213 0.0641213 0.0052
vt 2.17013 2.52446
f 46/86/1 17/14/1 47/87/1

v 0.0545 0.0645981 0.0052
vt 2.14567 2.54323
f 47/87/1 17/14/1 48/88/1

v 0.0537765 0.0648978 0.0052
vt 2.11718 2.55503
f 48/88/1 17/14/1 49/89/1

v 0.053 0.065 0.0052
vt 2.08661 2.55906
f 49/89/1 17/14/1 50/90/1

v 0.051 0.066 0.0052
vt 2.00787 2.59843
f 50/90/1 17/14/1 51/91/1

v 0.049 0.066 0.0052
vt 1.92913 2.59843
f 51/91/1 17/14/1 52/92/1

v 0.037 0.066 0.0052
vt 1.45669 2.59843
f 52/92/1 17/14/1 53/93/1

v 0.035 0.066 0.0052
vt 1.37795 2.59843
f 53/93/1 17/14/1 54/94/1

f 18/9/1 54/94/1 17/14/1

v 0.033 0.065 0.0052
vt 1.29921 2.55906
f 18/9/1 55/95/1 54/94/1

v 0.0322235 0.0648978 0.0052
vt 1.26864 2.55503
f 18/9/1 56/96/1 55/95/1

v 0.0315 0.0645981 0.0052
vt 1.24016 2.54323
f 18/9/1 57/97/1 56/96/1

v 0.0308787 0.0641213 0.0052
vt 1.2157 2.52446
f 18/9/1 58/98/1 57/97/1

v 0.0304019 0.0635 0.0052
vt 1.19693 2.5
f 18/9/1 59/99/1 58/98/1

v 0.0301022 0.0627765 0.0052
vt 1.18513 2.47151
f 18/9/1 60/100/1 59/99/1

v 0.03 0.062 0.0052
vt 1.1811 2.44094
f 18/9/1 61/101/1 60/100/1

v 0.0301022 0.0612235 0.0052
vt 1.18513 2.41038
f 18/9/1 62/102/1 61/101/1

v 0.0304019 0.0605 0.0052
vt 1.19693 2.38189
f 18/9/1 63/103/1 62/102/1

v 0.0308787 0.0598787 0.0052
vt 1.2157 2.35743
f 18/9/1 64/104/1 63/103/1

v 0.0315 0.0594019 0.0052
vt 1.24016 2.33866
f 18/9/1 65/105/1 64/104/1

f 18/9/1 39/79/1 65/105/1

v 0.042 0.034 0.0052
vt 1.65354 1.33858
f 18/9/1 66/106/1 39/79/1

f 18/9/1 25/41/1 66/106/1

f 66/106/1 25/41/1 37/77/1

f 31/59/1 37/77/1 25/41/1

usemtl FrontColor
vt 1.73228 -0.204724
v 0.042 0.034 0.0007
vt 1.65354 -0.0275591
vt 1.65354 -0.204724
f 37/107/4 67/108/4 66/109/4

v 0.044 0.034 0.0007
vt 1.73228 -0.0275591
f 67/108/4 37/107/4 68/110/4

vt 0.204724 1.33858
v 0.044 0.042 0.0007
vt 0.0275591 1.65354
vt 0.0275591 1.33858
f 37/111/3 69/112/3 68/113/3

vt 0.204724 1.65354
f 69/112/3 37/111/3 38/114/3

vt -1.65354 -0.204724
vt -1.73228 -0.0275591
vt -1.73228 -0.204724
f 39/115/5 69/116/5 38/117/5

v 0.042 0.042 0.0007
vt -1.65354 -0.0275591
f 69/116/5 39/115/5 70/118/5

vt -0.204724 1.65354
vt -0.0275591 1.33858
vt -0.0275591 1.65354
f 39/119/2 67/120/2 70/121/2

vt -0.204724 1.33858
f 67/120/2 39/119/2 66/122/2

f 67/106/1 69/78/1 70/79/1

f 69/78/1 67/106/1 68/77/1

usemtl Color_M02
v 0.0322235 0.0591022 0.0052
vt 1.26864 2.32686
f 65/105/1 39/79/1 71/123/1

v 0.035 0.058 0.0052
vt 1.37795 2.28346
f 71/123/1 39/79/1 72/124/1

v 0.051 0.058 0.0052
vt 2.00787 2.28346
f 72/124/1 39/79/1 73/125/1

v 0.0537765 0.0591022 0.0052
vt 2.11718 2.32686
f 39/79/1 74/126/1 73/125/1

f 39/79/1 40/80/1 74/126/1

usemtl FrontColor
vt 0.204724 2.87731
v 0.0537765 0.0591022 0.0007
vt 0.0275591 2.84647
vn -0.258819 0.965926 -0
vt 0.204724 2.84647
f 40/127/8 75/128/14 74/129/14

v 0.0545 0.0594019 0.0007
vt 0.0275591 2.87731
f 75/128/14 40/127/8 76/130/8

vt 0.204724 3.15679
vn -0.707107 0.707107 -0
vt 0.0275591 3.12596
vt 0.204724 3.12596
f 41/131/15 76/132/8 40/133/8

v 0.0551213 0.0598787 0.0007
vt 0.0275591 3.15679
f 76/132/8 41/131/15 77/134/15

vt 0.204724 3.19137
v 0.0555981 0.0605 0.0007
vt 0.0275591 3.2222
vt 0.0275591 3.19137
f 41/135/15 78/136/11 77/137/15

vt 0.204724 3.2222
f 78/136/11 41/135/15 42/138/11

vt 0.204724 3.03824
v 0.0558978 0.0612235 0.0007
vt 0.0275591 3.06907
vn -0.965926 0.258819 -0
vt 0.0275591 3.03824
f 42/139/11 79/140/16 78/141/11

vt 0.204724 3.06907
f 79/140/16 42/139/11 43/142/16

vt 0.204724 2.677
v 0.056 0.062 0.0007
vt 0.0275591 2.70784
vn -1 -6.18691e-15 -0
vt 0.0275591 2.677
f 43/143/16 80/144/17 79/145/16

vt 0.204724 2.70784
f 80/144/17 43/143/16 44/146/17

vt 0.204724 2.13229
v 0.0558978 0.0627765 0.0007
vt 0.0275591 2.16312
vn -0.965926 -0.258819 -0
vt 0.0275591 2.13229
f 44/147/17 81/148/18 80/149/17

vt 0.204724 2.16312
f 81/148/18 44/147/17 45/150/18

vt 0.204724 1.44121
v 0.0555981 0.0635 0.0007
vt 0.0275591 1.47204
vt 0.0275591 1.44121
f 45/151/18 82/152/9 81/153/18

vt 0.204724 1.47204
f 82/152/9 45/151/18 46/154/9

vt 0.204724 0.650865
v 0.0551213 0.0641213 0.0007
vt 0.0275591 0.681698
vn -0.707107 -0.707107 -0
vt 0.0275591 0.650865
f 46/155/9 83/156/19 82/157/9

vt 0.204724 0.681698
f 83/156/19 46/155/9 47/158/19

vt 0.204724 -0.154053
vt 0.0275591 -0.184886
vt 0.204724 -0.184886
f 48/159/12 83/160/19 47/161/19

v 0.0545 0.0645981 0.0007
vt 0.0275591 -0.154053
f 83/160/19 48/159/12 84/162/12

vt 0.204724 -0.978254
vn -0.258819 -0.965926 -0
vt 0.0275591 -1.00909
vt 0.204724 -1.00909
f 49/163/20 84/164/12 48/165/12

v 0.0537765 0.0648978 0.0007
vt 0.0275591 -0.978254
f 84/164/12 49/163/20 85/166/20

vt 0.204724 -1.73474
vn 6.18691e-15 -1 -0
vt 0.0275591 -1.76557
vt 0.204724 -1.76557
f 50/167/21 85/168/20 49/169/20

v 0.053 0.065 0.0007
vt 0.0275591 -1.73474
f 85/168/20 50/167/21 86/170/21

v 0.0522235 0.0648978 0.0052
vt -0.204724 2.37195
vn 0.258819 -0.965926 -0
vt -0.0275591 2.40279
vt -0.204724 2.40279
f 87/171/22 86/172/21 50/173/21

v 0.0522235 0.0648978 0.0007
vt -0.0275591 2.37195
f 86/172/21 87/171/22 88/174/22

v 0.0515 0.0645981 0.0052
vt -0.204724 2.84647
vt -0.0275591 2.87731
vt -0.204724 2.87731
f 89/175/6 88/176/22 87/177/22

v 0.0515 0.0645981 0.0007
vt -0.0275591 2.84647
f 88/176/22 89/175/6 90/178/6

v 0.051 0.0642144 0.0052
vt -0.204724 3.13198
vn 0.608761 -0.793353 -0
vt -0.0275591 3.15679
vt -0.204724 3.15679
f 91/179/23 90/180/6 89/181/6

v 0.051 0.0642144 0.0007
vt -0.0275591 3.13198
f 90/180/6 91/179/23 92/182/23

vt 0.204724 2.52813
v 0.051 0.066 0.0007
vt 0.0275591 2.59843
vt 0.0275591 2.52813
f 91/183/3 93/184/3 92/185/3

vt 0.204724 2.59843
f 93/184/3 91/183/3 51/186/3

usemtl Color_M02
vt 2.02756 2.54323
vt 2.00787 2.52813
f 89/187/1 51/91/1 91/188/1

vt 2.05604 2.55503
f 51/91/1 89/187/1 87/189/1

f 51/91/1 87/189/1 50/90/1

usemtl FrontColor
vt -1.92913 -0.204724
vt -2.00787 -0.0275591
vt -2.00787 -0.204724
f 52/190/5 93/191/5 51/192/5

v 0.049 0.066 0.0007
vt -1.92913 -0.0275591
f 93/191/5 52/190/5 94/193/5

vt -0.204724 2.59843
v 0.049 0.058 0.0007
vt -0.0275591 2.28346
vt -0.0275591 2.59843
f 52/194/2 95/195/2 94/196/2

v 0.049 0.058 0.0052
vt -0.204724 2.28346
f 95/195/2 52/194/2 96/197/2

usemtl Color_M02
v 0.037 0.058 0.0052
vt 1.45669 2.28346
vt 1.92913 2.28346
f 52/92/1 97/198/1 96/199/1

f 97/198/1 52/92/1 53/93/1

usemtl FrontColor
v 0.037 0.066 0.0007
vt 0.204724 2.28346
f 98/184/3 97/200/3 53/186/3

v 0.037 0.058 0.0007
vt 0.0275591 2.28346
f 97/200/3 98/184/3 99/201/3

v 0.035 0.058 0.0007
f 98/93/1 100/124/1 99/198/1

v 0.035 0.0597856 0.0007
vt 1.37795 2.35376
f 100/124/1 98/93/1 101/202/1

v 0.0308787 0.0598787 0.0007
f 101/202/1 98/93/1 102/104/1

v 0.035 0.0642144 0.0007
vt 1.37795 2.52813
f 102/104/1 98/93/1 103/203/1

v 0.035 0.066 0.0007
f 103/203/1 98/93/1 104/94/1

vt -1.45669 -0.0275591
vt -1.37795 -0.204724
vt -1.37795 -0.0275591
f 98/204/5 54/205/5 104/206/5

vt -1.45669 -0.204724
f 54/205/5 98/204/5 53/207/5

vt -0.0275591 2.52813
f 54/194/2 103/208/2 104/196/2

v 0.035 0.0642144 0.0052
vt -0.204724 2.52813
f 103/208/2 54/194/2 105/209/2

usemtl Color_M02
v 0.0345 0.0645981 0.0052
vt 1.35827 2.54323
f 54/94/1 106/210/1 105/203/1

v 0.0337765 0.0648978 0.0052
vt 1.32978 2.55503
f 106/210/1 54/94/1 107/211/1

f 107/211/1 54/94/1 55/95/1

usemtl FrontColor
vt 0.204724 -0.954074
v 0.0337765 0.0648978 0.0007
vt 0.0275591 -0.984907
vt 0.204724 -0.984907
f 55/212/5 108/213/20 107/214/20

v 0.033 0.065 0.0007
vt 0.0275591 -0.954074
f 108/213/20 55/212/5 109/215/5

vt -0.204724 1.59129
vt -0.0275591 1.62212
vt -0.204724 1.62212
f 56/216/22 109/217/5 55/218/5

v 0.0322235 0.0648978 0.0007
vt -0.0275591 1.59129
f 109/217/5 56/216/22 110/219/22

vt -0.204724 2.11901
vt -0.0275591 2.14984
vt -0.204724 2.14984
f 57/220/6 110/221/22 56/222/22

v 0.0315 0.0645981 0.0007
vt -0.0275591 2.11901
f 110/221/22 57/220/6 111/223/6

vt -0.204724 2.50127
vn 0.707107 -0.707107 -0
vt -0.0275591 2.5321
vt -0.204724 2.5321
f 58/224/24 111/225/6 57/226/6

v 0.0308787 0.0641213 0.0007
vt -0.0275591 2.50127
f 111/225/6 58/224/24 112/227/24

vt -0.204724 2.74286
v 0.0304019 0.0635 0.0007
vt -0.0275591 2.71203
vt -0.0275591 2.74286
f 58/228/24 113/229/13 112/230/24

vt -0.204724 2.71203
f 113/229/13 58/228/24 59/231/13

vt -0.204724 2.76774
v 0.0301022 0.0627765 0.0007
vt -0.0275591 2.73691
vn 0.965926 -0.258819 -0
vt -0.0275591 2.76774
f 59/232/13 114/233/25 113/234/13

vt -0.204724 2.73691
f 114/233/25 59/232/13 60/235/25

vt -0.204724 2.60506
v 0.03 0.062 0.0007
vt -0.0275591 2.57423
vn 1 -9.51833e-16 -0
vt -0.0275591 2.60506
f 60/236/25 115/237/26 114/238/25

vt -0.204724 2.57423
f 115/237/26 60/236/25 61/239/26

vt -0.204724 2.2659
v 0.0301022 0.0612235 0.0007
vt -0.0275591 2.23506
vn 0.965926 0.258819 -0
vt -0.0275591 2.2659
f 61/240/26 116/241/27 115/242/26

vt -0.204724 2.23506
f 116/241/27 61/240/26 62/243/27

vt -0.204724 1.77337
v 0.0304019 0.0605 0.0007
vt -0.0275591 1.74254
vt -0.0275591 1.77337
f 62/244/27 117/245/7 116/246/27

vt -0.204724 1.74254
f 117/245/7 62/244/27 63/247/7

vt -0.204724 1.16104
vt -0.0275591 1.1302
vn 0.707107 0.707107 -0
vt -0.0275591 1.16104
f 63/248/7 102/249/28 117/250/7

vt -0.204724 1.1302
f 102/249/28 63/248/7 64/251/28

vt -0.204724 0.439802
vt -0.0275591 0.470635
vt -0.204724 0.470635
f 65/252/10 102/253/28 64/254/28

v 0.0315 0.0594019 0.0007
vt -0.0275591 0.439802
f 102/253/28 65/252/10 118/255/10

vt -0.204724 -0.281623
vn 0.258819 0.965926 -0
vt -0.0275591 -0.25079
vt -0.204724 -0.25079
f 71/256/29 118/257/10 65/258/10

v 0.0322235 0.0591022 0.0007
vt -0.0275591 -0.281623
f 118/257/10 71/256/29 119/259/29

v 0.033 0.059 0.0052
vt -0.204724 -0.984907
vt -0.0275591 -0.954074
vt -0.204724 -0.954074
f 120/260/4 119/261/29 71/262/29

v 0.033 0.059 0.0007
vt -0.0275591 -0.984907
f 119/261/29 120/260/4 121/263/4

v 0.0337765 0.0591022 0.0052
vt 0.204724 1.62212
vt 0.0275591 1.59129
vt 0.204724 1.59129
f 122/264/14 121/265/4 120/266/4

v 0.0337765 0.0591022 0.0007
vt 0.0275591 1.62212
f 121/265/4 122/264/14 123/267/14

v 0.0345 0.0594019 0.0052
vt 0.204724 2.14984
vt 0.0275591 2.11901
vt 0.204724 2.11901
f 124/268/8 123/269/14 122/270/14

v 0.0345 0.0594019 0.0007
vt 0.0275591 2.14984
f 123/269/14 124/268/8 125/271/8

v 0.035 0.0597856 0.0052
vt 0.204724 2.52608
vn -0.608761 0.793353 -0
vt 0.0275591 2.50127
vt 0.204724 2.50127
f 126/272/30 125/273/8 124/274/8

vt 0.0275591 2.52608
f 125/273/8 126/272/30 101/275/30

vt -0.204724 2.35376
vt -0.0275591 2.35376
f 126/276/2 100/195/2 101/277/2

f 100/195/2 126/276/2 72/197/2

usemtl Color_M02
vt 1.35827 2.33866
f 124/278/1 72/124/1 126/202/1

vt 1.32978 2.32686
f 122/279/1 72/124/1 124/278/1

vt 1.29921 2.32283
f 72/124/1 122/279/1 120/280/1

f 71/123/1 72/124/1 120/280/1

usemtl FrontColor
vt 1.45669 -0.204724
vt 1.37795 -0.0275591
vt 1.37795 -0.204724
f 97/281/4 100/282/4 72/283/4

vt 1.45669 -0.0275591
f 100/282/4 97/281/4 99/284/4

usemtl Color_M02
f 72/124/1 96/199/1 97/198/1

f 72/124/1 73/125/1 96/199/1

usemtl FrontColor
vt 2.00787 -0.204724
vt 1.92913 -0.0275591
vt 1.92913 -0.204724
f 73/285/4 95/286/4 96/287/4

v 0.051 0.058 0.0007
vt 2.00787 -0.0275591
f 95/286/4 73/285/4 127/288/4

v 0.051 0.0597856 0.0007
vt 0.0275591 2.35376
f 73/200/3 128/289/3 127/201/3

v 0.051 0.0597856 0.0052
vt 0.204724 2.35376
f 128/289/3 73/200/3 129/290/3

usemtl Color_M02
v 0.0515 0.0594019 0.0052
vt 2.02756 2.33866
vt 2.00787 2.35376
f 73/125/1 130/291/1 129/292/1

v 0.0522235 0.0591022 0.0052
vt 2.05604 2.32686
f 130/291/1 73/125/1 131/293/1

v 0.053 0.059 0.0052
vt 2.08661 2.32283
f 131/293/1 73/125/1 132/294/1

f 73/125/1 74/126/1 132/294/1

usemtl FrontColor
vt 0.204724 2.40279
v 0.053 0.059 0.0007
vt 0.0275591 2.37195
vt 0.204724 2.37195
f 74/295/14 133/296/4 132/297/4

vt 0.0275591 2.40279
f 133/296/4 74/295/14 75/298/14

v 0.0522235 0.0591022 0.0007
f 75/126/1 134/293/1 133/294/1

f 134/293/1 75/126/1 76/80/1

v 0.0515 0.0594019 0.0007
f 134/293/1 76/80/1 135/291/1

f 135/291/1 76/80/1 77/81/1

f 135/291/1 77/81/1 128/292/1

f 94/92/1 128/292/1 77/81/1

f 95/199/1 128/292/1 94/92/1

f 128/292/1 95/199/1 127/125/1

f 94/92/1 77/81/1 92/188/1

f 92/188/1 77/81/1 78/82/1

f 92/188/1 78/82/1 79/83/1

f 92/188/1 79/83/1 80/84/1

f 92/188/1 80/84/1 81/85/1

f 92/188/1 81/85/1 82/86/1

f 92/188/1 82/86/1 83/87/1

f 84/88/1 92/188/1 83/87/1

f 92/188/1 84/88/1 90/187/1

f 90/187/1 84/88/1 85/89/1

f 90/187/1 85/89/1 88/189/1

f 88/189/1 85/89/1 86/90/1

f 94/92/1 92/188/1 93/91/1

vt -0.0275591 -0.160073
vn 0.608761 0.793353 -0
vt -0.204724 -0.184886
vt -0.0275591 -0.184886
f 128/299/31 130/300/10 135/301/10

vt -0.204724 -0.160073
f 130/300/10 128/299/31 129/302/31

vt -0.204724 -1.00909
vt -0.0275591 -0.978254
vt -0.204724 -0.978254
f 131/303/29 135/304/10 130/305/10

vt -0.0275591 -1.00909
f 135/304/10 131/303/29 134/306/29

vt -0.204724 -1.76557
vt -0.0275591 -1.73474
vt -0.204724 -1.73474
f 132/307/4 134/308/29 131/309/29

vt -0.0275591 -1.76557
f 134/308/29 132/307/4 133/310/4

f 118/105/1 125/278/1 101/202/1

f 119/123/1 125/278/1 118/105/1

f 119/123/1 123/279/1 125/278/1

f 123/279/1 119/123/1 121/280/1

f 118/105/1 101/202/1 102/104/1

f 102/104/1 103/203/1 117/103/1

f 117/103/1 103/203/1 116/102/1

f 116/102/1 103/203/1 115/101/1

f 115/101/1 103/203/1 114/100/1

f 114/100/1 103/203/1 113/99/1

f 113/99/1 103/203/1 112/98/1

f 103/203/1 111/97/1 112/98/1

v 0.0345 0.0645981 0.0007
f 111/97/1 103/203/1 136/210/1

vt 0.0275591 0.445822
vn -0.608761 -0.793353 -0
vt 0.204724 0.470635
vt 0.0275591 0.470635
f 103/311/32 106/312/12 136/313/12

vt 0.204724 0.445822
f 106/312/12 103/311/32 105/314/32

vt 0.204724 -0.25079
vt 0.0275591 -0.281623
vt 0.204724 -0.281623
f 107/315/20 136/316/12 106/317/12

vt 0.0275591 -0.25079
f 136/316/12 107/315/20 108/318/20

f 111/97/1 136/210/1 108/211/1

f 111/97/1 108/211/1 110/96/1

f 110/96/1 108/211/1 109/95/1

f 27/40/1 30/58/1 26/41/1

f 30/58/1 27/40/1 28/39/1

vt -3.0315 0
f 9/33/5 2/319/5 7/31/5

vt -0.354331 0
f 2/319/5 9/33/5 13/320/5

